<svg xmlns="http://www.w3.org/2000/svg" width="46" height="46" viewBox="0 0 48 48">
  <g>
    <path fill="#4285F4" d="M24 9.5c3.54 0 6.73 1.22 9.24 3.23l6.92-6.92C36.3 2.13 30.47 0 24 0 14.82 0 6.73 5.48 2.69 13.44l8.06 6.26C12.6 13.36 17.87 9.5 24 9.5z"/>
    <path fill="#34A853" d="M46.1 24.5c0-1.64-.15-3.22-.43-4.74H24v9.01h12.42c-.54 2.9-2.18 5.36-4.64 7.01l7.18 5.59C43.98 37.13 46.1 31.3 46.1 24.5z"/>
    <path fill="#FBBC05" d="M10.75 28.69c-1.13-3.36-1.13-6.97 0-10.33l-8.06-6.26C.98 16.13 0 20.01 0 24c0 3.99.98 7.87 2.69 11.6l8.06-6.26z"/>
    <path fill="#EA4335" d="M24 48c6.47 0 12.3-2.13 16.92-5.81l-7.18-5.59c-2.01 1.35-4.58 2.15-7.74 2.15-6.13 0-11.4-3.86-13.25-9.19l-8.06 6.26C6.73 42.52 14.82 48 24 48z"/>
    <path fill="none" d="M0 0h48v48H0z"/>
  </g>
</svg>